<svg id="visual" viewBox="0 0 960 960" width="960" height="960" xmlns="http://www.w3.org/2000/svg" xmlns:xlink="http://www.w3.org/1999/xlink" version="1.1"><rect x="0" y="0" width="960" height="960" fill="#FFFFFF"></rect><path d="M0 274L22.8 276.8C45.7 279.7 91.3 285.3 137 284.7C182.7 284 228.3 277 274 283.5C319.7 290 365.3 310 411.2 309.8C457 309.7 503 289.3 548.8 296.2C594.7 303 640.3 337 686 347.7C731.7 358.3 777.3 345.7 823 328C868.7 310.3 914.3 287.7 937.2 276.3L960 265L960 0L937.2 0C914.3 0 868.7 0 823 0C777.3 0 731.7 0 686 0C640.3 0 594.7 0 548.8 0C503 0 457 0 411.2 0C365.3 0 319.7 0 274 0C228.3 0 182.7 0 137 0C91.3 0 45.7 0 22.8 0L0 0Z" fill="#ffffff"></path><path d="M0 197L22.8 196.3C45.7 195.7 91.3 194.3 137 213.5C182.7 232.7 228.3 272.3 274 291.7C319.7 311 365.3 310 411.2 303.8C457 297.7 503 286.3 548.8 271C594.7 255.7 640.3 236.3 686 230.5C731.7 224.7 777.3 232.3 823 246C868.7 259.7 914.3 279.3 937.2 289.2L960 299L960 0L937.2 0C914.3 0 868.7 0 823 0C777.3 0 731.7 0 686 0C640.3 0 594.7 0 548.8 0C503 0 457 0 411.2 0C365.3 0 319.7 0 274 0C228.3 0 182.7 0 137 0C91.3 0 45.7 0 22.8 0L0 0Z" fill="#c8cadf"></path><path d="M0 258L22.8 246C45.7 234 91.3 210 137 195.8C182.7 181.7 228.3 177.3 274 180.5C319.7 183.7 365.3 194.3 411.2 208.2C457 222 503 239 548.8 239.5C594.7 240 640.3 224 686 214C731.7 204 777.3 200 823 202.7C868.7 205.3 914.3 214.7 937.2 219.3L960 224L960 0L937.2 0C914.3 0 868.7 0 823 0C777.3 0 731.7 0 686 0C640.3 0 594.7 0 548.8 0C503 0 457 0 411.2 0C365.3 0 319.7 0 274 0C228.3 0 182.7 0 137 0C91.3 0 45.7 0 22.8 0L0 0Z" fill="#9197bf"></path><path d="M0 107L22.8 104.5C45.7 102 91.3 97 137 103C182.7 109 228.3 126 274 132.2C319.7 138.3 365.3 133.7 411.2 126.3C457 119 503 109 548.8 116.2C594.7 123.3 640.3 147.7 686 150.3C731.7 153 777.3 134 823 126.3C868.7 118.7 914.3 122.3 937.2 124.2L960 126L960 0L937.2 0C914.3 0 868.7 0 823 0C777.3 0 731.7 0 686 0C640.3 0 594.7 0 548.8 0C503 0 457 0 411.2 0C365.3 0 319.7 0 274 0C228.3 0 182.7 0 137 0C91.3 0 45.7 0 22.8 0L0 0Z" fill="#5a679f"></path><path d="M0 70L22.8 70.2C45.7 70.3 91.3 70.7 137 67.5C182.7 64.3 228.3 57.7 274 53.7C319.7 49.7 365.3 48.3 411.2 49.2C457 50 503 53 548.8 52.3C594.7 51.7 640.3 47.3 686 45.2C731.7 43 777.3 43 823 53.5C868.7 64 914.3 85 937.2 95.5L960 106L960 0L937.2 0C914.3 0 868.7 0 823 0C777.3 0 731.7 0 686 0C640.3 0 594.7 0 548.8 0C503 0 457 0 411.2 0C365.3 0 319.7 0 274 0C228.3 0 182.7 0 137 0C91.3 0 45.7 0 22.8 0L0 0Z" fill="#113c80"></path></svg>