<svg id="visual" viewBox="0 0 960 960" width="960" height="960" xmlns="http://www.w3.org/2000/svg" xmlns:xlink="http://www.w3.org/1999/xlink" version="1.1"><path d="M0 299L16 279.7C32 260.3 64 221.7 96 221.7C128 221.7 160 260.3 192 294C224 327.7 256 356.3 288 335.5C320 314.7 352 244.3 384 226.7C416 209 448 244 480 263.2C512 282.3 544 285.7 576 281C608 276.3 640 263.7 672 284.5C704 305.3 736 359.7 768 361.2C800 362.7 832 311.3 864 290.5C896 269.7 928 279.3 944 284.2L960 289L960 0L944 0C928 0 896 0 864 0C832 0 800 0 768 0C736 0 704 0 672 0C640 0 608 0 576 0C544 0 512 0 480 0C448 0 416 0 384 0C352 0 320 0 288 0C256 0 224 0 192 0C160 0 128 0 96 0C64 0 32 0 16 0L0 0Z" fill="#414141"></path><path d="M0 471L16 466.3C32 461.7 64 452.3 96 455.7C128 459 160 475 192 494.2C224 513.3 256 535.7 288 503.7C320 471.7 352 385.3 384 356.5C416 327.7 448 356.3 480 389.8C512 423.3 544 461.7 576 456.8C608 452 640 404 672 408.8C704 413.7 736 471.3 768 479.3C800 487.3 832 445.7 864 434.5C896 423.3 928 442.7 944 452.3L960 462L960 287L944 282.2C928 277.3 896 267.7 864 288.5C832 309.3 800 360.7 768 359.2C736 357.7 704 303.3 672 282.5C640 261.7 608 274.3 576 279C544 283.7 512 280.3 480 261.2C448 242 416 207 384 224.7C352 242.3 320 312.7 288 333.5C256 354.3 224 325.7 192 292C160 258.3 128 219.7 96 219.7C64 219.7 32 258.3 16 277.7L0 297Z" fill="#2f2f2f"></path><path d="M0 587L16 579C32 571 64 555 96 563C128 571 160 603 192 620.5C224 638 256 641 288 609C320 577 352 510 384 497.2C416 484.3 448 525.7 480 562.3C512 599 544 631 576 626.3C608 621.7 640 580.3 672 574C704 567.7 736 596.3 768 601C800 605.7 832 586.3 864 580C896 573.7 928 580.3 944 583.7L960 587L960 460L944 450.3C928 440.7 896 421.3 864 432.5C832 443.7 800 485.3 768 477.3C736 469.3 704 411.7 672 406.8C640 402 608 450 576 454.8C544 459.7 512 421.3 480 387.8C448 354.3 416 325.7 384 354.5C352 383.3 320 469.7 288 501.7C256 533.7 224 511.3 192 492.2C160 473 128 457 96 453.7C64 450.3 32 459.7 16 464.3L0 469Z" fill="#1e1e1e"></path><path d="M0 846L16 849.2C32 852.3 64 858.7 96 855.5C128 852.3 160 839.7 192 839.7C224 839.7 256 852.3 288 860.3C320 868.3 352 871.7 384 876.5C416 881.3 448 887.7 480 878C512 868.3 544 842.7 576 841C608 839.3 640 861.7 672 861.7C704 861.7 736 839.3 768 836.2C800 833 832 849 864 853.8C896 858.7 928 852.3 944 849.2L960 846L960 585L944 581.7C928 578.3 896 571.7 864 578C832 584.3 800 603.7 768 599C736 594.3 704 565.7 672 572C640 578.3 608 619.7 576 624.3C544 629 512 597 480 560.3C448 523.7 416 482.3 384 495.2C352 508 320 575 288 607C256 639 224 636 192 618.5C160 601 128 569 96 561C64 553 32 569 16 577L0 585Z" fill="#1b1b1b"></path><path d="M0 961L16 961C32 961 64 961 96 961C128 961 160 961 192 961C224 961 256 961 288 961C320 961 352 961 384 961C416 961 448 961 480 961C512 961 544 961 576 961C608 961 640 961 672 961C704 961 736 961 768 961C800 961 832 961 864 961C896 961 928 961 944 961L960 961L960 844L944 847.2C928 850.3 896 856.7 864 851.8C832 847 800 831 768 834.2C736 837.3 704 859.7 672 859.7C640 859.7 608 837.3 576 839C544 840.7 512 866.3 480 876C448 885.7 416 879.3 384 874.5C352 869.7 320 866.3 288 858.3C256 850.3 224 837.7 192 837.7C160 837.7 128 850.3 96 853.5C64 856.7 32 850.3 16 847.2L0 844Z" fill="#181818"></path></svg>