<svg id="visual" viewBox="0 0 960 540" width="960" height="540" xmlns="http://www.w3.org/2000/svg" xmlns:xlink="http://www.w3.org/1999/xlink" version="1.1"><path d="M0 98L14.5 90C29 82 58 66 87.2 59.7C116.3 53.3 145.7 56.7 174.8 64.7C204 72.7 233 85.3 262 88.2C291 91 320 84 349 83.2C378 82.3 407 87.7 436.2 83.2C465.3 78.7 494.7 64.3 523.8 57.2C553 50 582 50 611 56.2C640 62.3 669 74.7 698 72.8C727 71 756 55 785.2 47C814.3 39 843.7 39 872.8 42.5C902 46 931 53 945.5 56.5L960 60L960 0L945.5 0C931 0 902 0 872.8 0C843.7 0 814.3 0 785.2 0C756 0 727 0 698 0C669 0 640 0 611 0C582 0 553 0 523.8 0C494.7 0 465.3 0 436.2 0C407 0 378 0 349 0C320 0 291 0 262 0C233 0 204 0 174.8 0C145.7 0 116.3 0 87.2 0C58 0 29 0 14.5 0L0 0Z" fill="#181818"></path><path d="M0 266L14.5 266C29 266 58 266 87.2 261.5C116.3 257 145.7 248 174.8 236.2C204 224.3 233 209.7 262 205.2C291 200.7 320 206.3 349 205.5C378 204.7 407 197.3 436.2 207.2C465.3 217 494.7 244 523.8 267.3C553 290.7 582 310.3 611 303.2C640 296 669 262 698 256.7C727 251.3 756 274.7 785.2 285.5C814.3 296.3 843.7 294.7 872.8 275.8C902 257 931 221 945.5 203L960 185L960 58L945.5 54.5C931 51 902 44 872.8 40.5C843.7 37 814.3 37 785.2 45C756 53 727 69 698 70.8C669 72.7 640 60.3 611 54.2C582 48 553 48 523.8 55.2C494.7 62.3 465.3 76.7 436.2 81.2C407 85.7 378 80.3 349 81.2C320 82 291 89 262 86.2C233 83.3 204 70.7 174.8 62.7C145.7 54.7 116.3 51.3 87.2 57.7C58 64 29 80 14.5 88L0 96Z" fill="#262626"></path><path d="M0 401L14.5 401.8C29 402.7 58 404.3 87.2 394.3C116.3 384.3 145.7 362.7 174.8 354.5C204 346.3 233 351.7 262 365.2C291 378.7 320 400.3 349 404C378 407.7 407 393.3 436.2 388.8C465.3 384.3 494.7 389.7 523.8 397.8C553 406 582 417 611 414.3C640 411.7 669 395.3 698 389C727 382.7 756 386.3 785.2 387.2C814.3 388 843.7 386 872.8 390.5C902 395 931 406 945.5 411.5L960 417L960 183L945.5 201C931 219 902 255 872.8 273.8C843.7 292.7 814.3 294.3 785.2 283.5C756 272.7 727 249.3 698 254.7C669 260 640 294 611 301.2C582 308.3 553 288.7 523.8 265.3C494.7 242 465.3 215 436.2 205.2C407 195.3 378 202.7 349 203.5C320 204.3 291 198.7 262 203.2C233 207.7 204 222.3 174.8 234.2C145.7 246 116.3 255 87.2 259.5C58 264 29 264 14.5 264L0 264Z" fill="#414141"></path><path d="M0 509L14.5 501.7C29 494.3 58 479.7 87.2 469.7C116.3 459.7 145.7 454.3 174.8 458.8C204 463.3 233 477.7 262 483.2C291 488.7 320 485.3 349 479.2C378 473 407 464 436.2 466.7C465.3 469.3 494.7 483.7 523.8 487.2C553 490.7 582 483.3 611 476.2C640 469 669 462 698 458.5C727 455 756 455 785.2 454C814.3 453 843.7 451 872.8 460C902 469 931 489 945.5 499L960 509L960 415L945.5 409.5C931 404 902 393 872.8 388.5C843.7 384 814.3 386 785.2 385.2C756 384.3 727 380.7 698 387C669 393.3 640 409.7 611 412.3C582 415 553 404 523.8 395.8C494.7 387.7 465.3 382.3 436.2 386.8C407 391.3 378 405.7 349 402C320 398.3 291 376.7 262 363.2C233 349.7 204 344.3 174.8 352.5C145.7 360.7 116.3 382.3 87.2 392.3C58 402.3 29 400.7 14.5 399.8L0 399Z" fill="#262626"></path><path d="M0 541L14.5 541C29 541 58 541 87.2 541C116.3 541 145.7 541 174.8 541C204 541 233 541 262 541C291 541 320 541 349 541C378 541 407 541 436.2 541C465.3 541 494.7 541 523.8 541C553 541 582 541 611 541C640 541 669 541 698 541C727 541 756 541 785.2 541C814.3 541 843.7 541 872.8 541C902 541 931 541 945.5 541L960 541L960 507L945.5 497C931 487 902 467 872.8 458C843.7 449 814.3 451 785.2 452C756 453 727 453 698 456.5C669 460 640 467 611 474.2C582 481.3 553 488.7 523.8 485.2C494.7 481.7 465.3 467.3 436.2 464.7C407 462 378 471 349 477.2C320 483.3 291 486.7 262 481.2C233 475.7 204 461.3 174.8 456.8C145.7 452.3 116.3 457.7 87.2 467.7C58 477.7 29 492.3 14.5 499.7L0 507Z" fill="#181818"></path></svg>