<svg id="visual" viewBox="0 0 960 960" width="960" height="960" xmlns="http://www.w3.org/2000/svg" xmlns:xlink="http://www.w3.org/1999/xlink" version="1.1"><path d="M0 68L12.3 84C24.7 100 49.3 132 74 135.2C98.7 138.3 123.3 112.7 148 111.2C172.7 109.7 197.3 132.3 221.8 143.7C246.3 155 270.7 155 295.2 150.2C319.7 145.3 344.3 135.7 369 119.7C393.7 103.7 418.3 81.3 443 79.7C467.7 78 492.3 97 517 111.3C541.7 125.7 566.3 135.3 591 130.5C615.7 125.7 640.3 106.3 664.8 92C689.3 77.7 713.7 68.3 738.2 66.8C762.7 65.3 787.3 71.7 812 76.3C836.7 81 861.3 84 886 87.2C910.7 90.3 935.3 93.7 947.7 95.3L960 97L960 0L947.7 0C935.3 0 910.7 0 886 0C861.3 0 836.7 0 812 0C787.3 0 762.7 0 738.2 0C713.7 0 689.3 0 664.8 0C640.3 0 615.7 0 591 0C566.3 0 541.7 0 517 0C492.3 0 467.7 0 443 0C418.3 0 393.7 0 369 0C344.3 0 319.7 0 295.2 0C270.7 0 246.3 0 221.8 0C197.3 0 172.7 0 148 0C123.3 0 98.7 0 74 0C49.3 0 24.7 0 12.3 0L0 0Z" fill="#323232"></path><path d="M0 107L12.3 126.2C24.7 145.3 49.3 183.7 74 194.8C98.7 206 123.3 190 148 190C172.7 190 197.3 206 221.8 207.5C246.3 209 270.7 196 295.2 191.2C319.7 186.3 344.3 189.7 369 178.5C393.7 167.3 418.3 141.7 443 140C467.7 138.3 492.3 160.7 517 171.8C541.7 183 566.3 183 591 176.7C615.7 170.3 640.3 157.7 664.8 141.7C689.3 125.7 713.7 106.3 738.2 104.7C762.7 103 787.3 119 812 128.7C836.7 138.3 861.3 141.7 886 140.2C910.7 138.7 935.3 132.3 947.7 129.2L960 126L960 95L947.7 93.3C935.3 91.7 910.7 88.3 886 85.2C861.3 82 836.7 79 812 74.3C787.3 69.7 762.7 63.3 738.2 64.8C713.7 66.3 689.3 75.7 664.8 90C640.3 104.3 615.7 123.7 591 128.5C566.3 133.3 541.7 123.7 517 109.3C492.3 95 467.7 76 443 77.7C418.3 79.3 393.7 101.7 369 117.7C344.3 133.7 319.7 143.3 295.2 148.2C270.7 153 246.3 153 221.8 141.7C197.3 130.3 172.7 107.7 148 109.2C123.3 110.7 98.7 136.3 74 133.2C49.3 130 24.7 98 12.3 82L0 66Z" fill="#373737"></path><path d="M0 404L12.3 426.5C24.7 449 49.3 494 74 486C98.7 478 123.3 417 148 407.3C172.7 397.7 197.3 439.3 221.8 434.5C246.3 429.7 270.7 378.3 295.2 362.3C319.7 346.3 344.3 365.7 369 369C393.7 372.3 418.3 359.7 443 359.7C467.7 359.7 492.3 372.3 517 369C541.7 365.7 566.3 346.3 591 349.5C615.7 352.7 640.3 378.3 664.8 373.7C689.3 369 713.7 334 738.2 335.7C762.7 337.3 787.3 375.7 812 386.8C836.7 398 861.3 382 886 372.3C910.7 362.7 935.3 359.3 947.7 357.7L960 356L960 124L947.7 127.2C935.3 130.3 910.7 136.7 886 138.2C861.3 139.7 836.7 136.3 812 126.7C787.3 117 762.7 101 738.2 102.7C713.7 104.3 689.3 123.7 664.8 139.7C640.3 155.7 615.7 168.3 591 174.7C566.3 181 541.7 181 517 169.8C492.3 158.7 467.7 136.3 443 138C418.3 139.7 393.7 165.3 369 176.5C344.3 187.7 319.7 184.3 295.2 189.2C270.7 194 246.3 207 221.8 205.5C197.3 204 172.7 188 148 188C123.3 188 98.7 204 74 192.8C49.3 181.7 24.7 143.3 12.3 124.2L0 105Z" fill="#3c3c3c"></path><path d="M0 491L12.3 510.2C24.7 529.3 49.3 567.7 74 556.3C98.7 545 123.3 484 148 468C172.7 452 197.3 481 221.8 477.8C246.3 474.7 270.7 439.3 295.2 432.8C319.7 426.3 344.3 448.7 369 448.7C393.7 448.7 418.3 426.3 443 418.3C467.7 410.3 492.3 416.7 517 411.8C541.7 407 566.3 391 591 400.7C615.7 410.3 640.3 445.7 664.8 439.3C689.3 433 713.7 385 738.2 388.2C762.7 391.3 787.3 445.7 812 458.5C836.7 471.3 861.3 442.7 886 433.2C910.7 423.7 935.3 433.3 947.7 438.2L960 443L960 354L947.7 355.7C935.3 357.3 910.7 360.7 886 370.3C861.3 380 836.7 396 812 384.8C787.3 373.7 762.7 335.3 738.2 333.7C713.7 332 689.3 367 664.8 371.7C640.3 376.3 615.7 350.7 591 347.5C566.3 344.3 541.7 363.7 517 367C492.3 370.3 467.7 357.7 443 357.7C418.3 357.7 393.7 370.3 369 367C344.3 363.7 319.7 344.3 295.2 360.3C270.7 376.3 246.3 427.7 221.8 432.5C197.3 437.3 172.7 395.7 148 405.3C123.3 415 98.7 476 74 484C49.3 492 24.7 447 12.3 424.5L0 402Z" fill="#414141"></path><path d="M0 750L12.3 746.8C24.7 743.7 49.3 737.3 74 729.3C98.7 721.3 123.3 711.7 148 705.2C172.7 698.7 197.3 695.3 221.8 685.7C246.3 676 270.7 660 295.2 648.8C319.7 637.7 344.3 631.3 369 636.2C393.7 641 418.3 657 443 653.8C467.7 650.7 492.3 628.3 517 625.2C541.7 622 566.3 638 591 650.8C615.7 663.7 640.3 673.3 664.8 678.2C689.3 683 713.7 683 738.2 697.3C762.7 711.7 787.3 740.3 812 743.5C836.7 746.7 861.3 724.3 886 714.7C910.7 705 935.3 708 947.7 709.5L960 711L960 441L947.7 436.2C935.3 431.3 910.7 421.7 886 431.2C861.3 440.7 836.7 469.3 812 456.5C787.3 443.7 762.7 389.3 738.2 386.2C713.7 383 689.3 431 664.8 437.3C640.3 443.7 615.7 408.3 591 398.7C566.3 389 541.7 405 517 409.8C492.3 414.7 467.7 408.3 443 416.3C418.3 424.3 393.7 446.7 369 446.7C344.3 446.7 319.7 424.3 295.2 430.8C270.7 437.3 246.3 472.7 221.8 475.8C197.3 479 172.7 450 148 466C123.3 482 98.7 543 74 554.3C49.3 565.7 24.7 527.3 12.3 508.2L0 489Z" fill="#484848"></path><path d="M0 807L12.3 802.3C24.7 797.7 49.3 788.3 74 777.2C98.7 766 123.3 753 148 749.7C172.7 746.3 197.3 752.7 221.8 744.7C246.3 736.7 270.7 714.3 295.2 709.7C319.7 705 344.3 718 369 734C393.7 750 418.3 769 443 762.5C467.7 756 492.3 724 517 709.7C541.7 695.3 566.3 698.7 591 713.2C615.7 727.7 640.3 753.3 664.8 766.2C689.3 779 713.7 779 738.2 787C762.7 795 787.3 811 812 807.7C836.7 804.3 861.3 781.7 886 775.2C910.7 768.7 935.3 778.3 947.7 783.2L960 788L960 709L947.7 707.5C935.3 706 910.7 703 886 712.7C861.3 722.3 836.7 744.7 812 741.5C787.3 738.3 762.7 709.7 738.2 695.3C713.7 681 689.3 681 664.8 676.2C640.3 671.3 615.7 661.7 591 648.8C566.3 636 541.7 620 517 623.2C492.3 626.3 467.7 648.7 443 651.8C418.3 655 393.7 639 369 634.2C344.3 629.3 319.7 635.7 295.2 646.8C270.7 658 246.3 674 221.8 683.7C197.3 693.3 172.7 696.7 148 703.2C123.3 709.7 98.7 719.3 74 727.3C49.3 735.3 24.7 741.7 12.3 744.8L0 748Z" fill="#525252"></path><path d="M0 846L12.3 844.3C24.7 842.7 49.3 839.3 74 836.2C98.7 833 123.3 830 148 826.8C172.7 823.7 197.3 820.3 221.8 812.3C246.3 804.3 270.7 791.7 295.2 788.5C319.7 785.3 344.3 791.7 369 802.8C393.7 814 418.3 830 443 822C467.7 814 492.3 782 517 777.2C541.7 772.3 566.3 794.7 591 805.8C615.7 817 640.3 817 664.8 818.7C689.3 820.3 713.7 823.7 738.2 831.7C762.7 839.7 787.3 852.3 812 847.5C836.7 842.7 861.3 820.3 886 817.2C910.7 814 935.3 830 947.7 838L960 846L960 786L947.7 781.2C935.3 776.3 910.7 766.7 886 773.2C861.3 779.7 836.7 802.3 812 805.7C787.3 809 762.7 793 738.2 785C713.7 777 689.3 777 664.8 764.2C640.3 751.3 615.7 725.7 591 711.2C566.3 696.7 541.7 693.3 517 707.7C492.3 722 467.7 754 443 760.5C418.3 767 393.7 748 369 732C344.3 716 319.7 703 295.2 707.7C270.7 712.3 246.3 734.7 221.8 742.7C197.3 750.7 172.7 744.3 148 747.7C123.3 751 98.7 764 74 775.2C49.3 786.3 24.7 795.7 12.3 800.3L0 805Z" fill="#5c5c5c"></path><path d="M0 961L12.3 961C24.7 961 49.3 961 74 961C98.7 961 123.3 961 148 961C172.7 961 197.3 961 221.8 961C246.3 961 270.7 961 295.2 961C319.7 961 344.3 961 369 961C393.7 961 418.3 961 443 961C467.7 961 492.3 961 517 961C541.7 961 566.3 961 591 961C615.7 961 640.3 961 664.8 961C689.3 961 713.7 961 738.2 961C762.7 961 787.3 961 812 961C836.7 961 861.3 961 886 961C910.7 961 935.3 961 947.7 961L960 961L960 844L947.7 836C935.3 828 910.7 812 886 815.2C861.3 818.3 836.7 840.7 812 845.5C787.3 850.3 762.7 837.7 738.2 829.7C713.7 821.7 689.3 818.3 664.8 816.7C640.3 815 615.7 815 591 803.8C566.3 792.7 541.7 770.3 517 775.2C492.3 780 467.7 812 443 820C418.3 828 393.7 812 369 800.8C344.3 789.7 319.7 783.3 295.2 786.5C270.7 789.7 246.3 802.3 221.8 810.3C197.3 818.3 172.7 821.7 148 824.8C123.3 828 98.7 831 74 834.2C49.3 837.3 24.7 840.7 12.3 842.3L0 844Z" fill="#676767"></path></svg>