<svg id="visual" viewBox="0 0 960 300" width="960" height="300" xmlns="http://www.w3.org/2000/svg" xmlns:xlink="http://www.w3.org/1999/xlink" version="1.1"><rect x="0" y="0" width="960" height="300" fill="#FFFFFF"></rect><path d="M0 119L22.8 119.2C45.7 119.3 91.3 119.7 137 113.2C182.7 106.7 228.3 93.3 274 90.7C319.7 88 365.3 96 411.2 95.7C457 95.3 503 86.7 548.8 84C594.7 81.3 640.3 84.7 686 84.2C731.7 83.7 777.3 79.3 823 84.7C868.7 90 914.3 105 937.2 112.5L960 120L960 0L937.2 0C914.3 0 868.7 0 823 0C777.3 0 731.7 0 686 0C640.3 0 594.7 0 548.8 0C503 0 457 0 411.2 0C365.3 0 319.7 0 274 0C228.3 0 182.7 0 137 0C91.3 0 45.7 0 22.8 0L0 0Z" fill="#ffffff"></path><path d="M0 99L22.8 93.2C45.7 87.3 91.3 75.7 137 70.5C182.7 65.3 228.3 66.7 274 73C319.7 79.3 365.3 90.7 411.2 91.2C457 91.7 503 81.3 548.8 79.3C594.7 77.3 640.3 83.7 686 86.7C731.7 89.7 777.3 89.3 823 90.7C868.7 92 914.3 95 937.2 96.5L960 98L960 0L937.2 0C914.3 0 868.7 0 823 0C777.3 0 731.7 0 686 0C640.3 0 594.7 0 548.8 0C503 0 457 0 411.2 0C365.3 0 319.7 0 274 0C228.3 0 182.7 0 137 0C91.3 0 45.7 0 22.8 0L0 0Z" fill="#c8cadf"></path><path d="M0 54L22.8 52.2C45.7 50.3 91.3 46.7 137 48.8C182.7 51 228.3 59 274 60.8C319.7 62.7 365.3 58.3 411.2 59.7C457 61 503 68 548.8 70.7C594.7 73.3 640.3 71.7 686 70.3C731.7 69 777.3 68 823 64C868.7 60 914.3 53 937.2 49.5L960 46L960 0L937.2 0C914.3 0 868.7 0 823 0C777.3 0 731.7 0 686 0C640.3 0 594.7 0 548.8 0C503 0 457 0 411.2 0C365.3 0 319.7 0 274 0C228.3 0 182.7 0 137 0C91.3 0 45.7 0 22.8 0L0 0Z" fill="#9197bf"></path><path d="M0 57L22.8 53.3C45.7 49.7 91.3 42.3 137 38C182.7 33.7 228.3 32.3 274 31.7C319.7 31 365.3 31 411.2 34.3C457 37.7 503 44.3 548.8 43.8C594.7 43.3 640.3 35.7 686 34.2C731.7 32.7 777.3 37.3 823 38.7C868.7 40 914.3 38 937.2 37L960 36L960 0L937.2 0C914.3 0 868.7 0 823 0C777.3 0 731.7 0 686 0C640.3 0 594.7 0 548.8 0C503 0 457 0 411.2 0C365.3 0 319.7 0 274 0C228.3 0 182.7 0 137 0C91.3 0 45.7 0 22.8 0L0 0Z" fill="#5a679f"></path><path d="M0 34L22.8 33.7C45.7 33.3 91.3 32.7 137 32.8C182.7 33 228.3 34 274 31.7C319.7 29.3 365.3 23.7 411.2 22.3C457 21 503 24 548.8 23.3C594.7 22.7 640.3 18.3 686 19C731.7 19.7 777.3 25.3 823 26.3C868.7 27.3 914.3 23.7 937.2 21.8L960 20L960 0L937.2 0C914.3 0 868.7 0 823 0C777.3 0 731.7 0 686 0C640.3 0 594.7 0 548.8 0C503 0 457 0 411.2 0C365.3 0 319.7 0 274 0C228.3 0 182.7 0 137 0C91.3 0 45.7 0 22.8 0L0 0Z" fill="#113c80"></path></svg>