<svg id="visual" viewBox="0 0 960 300" width="960" height="300" xmlns="http://www.w3.org/2000/svg" xmlns:xlink="http://www.w3.org/1999/xlink" version="1.1"><rect x="0" y="0" width="960" height="300" fill="#001122"></rect><path d="M0 100L22.8 102.3C45.7 104.7 91.3 109.3 137 109.7C182.7 110 228.3 106 274 100.2C319.7 94.3 365.3 86.7 411.2 89C457 91.3 503 103.7 548.8 107C594.7 110.3 640.3 104.7 686 100.5C731.7 96.3 777.3 93.7 823 93.8C868.7 94 914.3 97 937.2 98.5L960 100L960 0L937.2 0C914.3 0 868.7 0 823 0C777.3 0 731.7 0 686 0C640.3 0 594.7 0 548.8 0C503 0 457 0 411.2 0C365.3 0 319.7 0 274 0C228.3 0 182.7 0 137 0C91.3 0 45.7 0 22.8 0L0 0Z" fill="#1e1e1e"></path><path d="M0 81L22.8 83.3C45.7 85.7 91.3 90.3 137 90.3C182.7 90.3 228.3 85.7 274 81.5C319.7 77.3 365.3 73.7 411.2 70C457 66.3 503 62.7 548.8 65.5C594.7 68.3 640.3 77.7 686 84.3C731.7 91 777.3 95 823 90.7C868.7 86.3 914.3 73.7 937.2 67.3L960 61L960 0L937.2 0C914.3 0 868.7 0 823 0C777.3 0 731.7 0 686 0C640.3 0 594.7 0 548.8 0C503 0 457 0 411.2 0C365.3 0 319.7 0 274 0C228.3 0 182.7 0 137 0C91.3 0 45.7 0 22.8 0L0 0Z" fill="#4f4f4f"></path><path d="M0 63L22.8 63.5C45.7 64 91.3 65 137 62.8C182.7 60.7 228.3 55.3 274 54.2C319.7 53 365.3 56 411.2 60.5C457 65 503 71 548.8 68.5C594.7 66 640.3 55 686 55.2C731.7 55.3 777.3 66.7 823 68.8C868.7 71 914.3 64 937.2 60.5L960 57L960 0L937.2 0C914.3 0 868.7 0 823 0C777.3 0 731.7 0 686 0C640.3 0 594.7 0 548.8 0C503 0 457 0 411.2 0C365.3 0 319.7 0 274 0C228.3 0 182.7 0 137 0C91.3 0 45.7 0 22.8 0L0 0Z" fill="#858585"></path><path d="M0 31L22.8 32.8C45.7 34.7 91.3 38.3 137 39.2C182.7 40 228.3 38 274 40.7C319.7 43.3 365.3 50.7 411.2 50.2C457 49.7 503 41.3 548.8 38.5C594.7 35.7 640.3 38.3 686 40.2C731.7 42 777.3 43 823 40.8C868.7 38.7 914.3 33.3 937.2 30.7L960 28L960 0L937.2 0C914.3 0 868.7 0 823 0C777.3 0 731.7 0 686 0C640.3 0 594.7 0 548.8 0C503 0 457 0 411.2 0C365.3 0 319.7 0 274 0C228.3 0 182.7 0 137 0C91.3 0 45.7 0 22.8 0L0 0Z" fill="#c0c0c0"></path><path d="M0 34L22.8 33.3C45.7 32.7 91.3 31.3 137 31.7C182.7 32 228.3 34 274 32.8C319.7 31.7 365.3 27.3 411.2 26.5C457 25.7 503 28.3 548.8 29.3C594.7 30.3 640.3 29.7 686 27.7C731.7 25.7 777.3 22.3 823 20C868.7 17.7 914.3 16.3 937.2 15.7L960 15L960 0L937.2 0C914.3 0 868.7 0 823 0C777.3 0 731.7 0 686 0C640.3 0 594.7 0 548.8 0C503 0 457 0 411.2 0C365.3 0 319.7 0 274 0C228.3 0 182.7 0 137 0C91.3 0 45.7 0 22.8 0L0 0Z" fill="#ffffff"></path></svg>