<svg id="visual" viewBox="0 0 960 300" width="960" height="300" xmlns="http://www.w3.org/2000/svg" xmlns:xlink="http://www.w3.org/1999/xlink" version="1.1"><rect x="0" y="0" width="960" height="300" fill="#FFFFFF"></rect><path d="M0 205L40 197.5C80 190 160 175 240 165.2C320 155.3 400 150.7 480 158.5C560 166.3 640 186.7 720 189C800 191.3 880 175.7 920 167.8L960 160L960 301L920 301C880 301 800 301 720 301C640 301 560 301 480 301C400 301 320 301 240 301C160 301 80 301 40 301L0 301Z" fill="#1E1E1E" stroke-linecap="round" stroke-linejoin="miter"></path></svg>